<?xml version="1.0"?>
<svg xmlns="http://www.w3.org/2000/svg" height="512px" viewBox="0 0 495.7 495.7" width="512px" class=""><g><path d="m337.199219 232.398438c6.945312-1.125 13.964843-1.695313 21-1.699219 70.476562-.039063 127.632812 57.074219 127.648437 127.550781.011719 70.472656-57.125 127.609375-127.597656 127.597656-70.476562-.015625-127.589844-57.171875-127.550781-127.648437.011719-5.550781.378906-11.09375 1.101562-16.597657 7.257813-55.636718 50.054688-99.976562 105.398438-109.203124zm37.902343 77.902343-61.101562 61.199219-8.398438 37.800781 37.796876-8.402343 61.203124-61.097657 17.5-17.5-29.601562-29.601562zm0 0" fill="#00efd1" data-original="#00EFD1"/><path d="m422.300781 322.398438-17.601562 17.5-29.597657-29.597657 17.5-17.601562zm0 0" fill="#f4b844" data-original="#F4B844"/><path d="m404.699219 339.898438-61.199219 61-37.800781 8.402343 8.402343-37.800781 61-61.199219zm0 0" fill="#fedb41" data-original="#FEDB41"/><path d="m337.199219 10.199219v222.199219c-55.363281 9.21875-98.195313 53.550781-105.5 109.203124h-154.699219v-331.402343zm-44 142.601562v-90.101562h-172.199219v90.199219h172.199219zm0 0" fill="#00acea" data-original="#00ACEA"/><path d="m121 62.699219h172.199219v90.199219h-172.199219zm0 0" fill="#00efd1" data-original="#00EFD1"/><path d="m247.300781 421.199219h-197.199219c-21.949218-.078125-39.722656-17.851563-39.800781-39.800781v-1.597657c.890625-21.339843 18.441407-38.1875 39.800781-38.199219h181.597657c-.71875 5.503907-1.089844 11.046876-1.097657 16.597657-.015624 22.097656 5.742188 43.8125 16.699219 63zm0 0" fill="#d4e1f4" data-original="#D4E1F4"/><path d="m77 10.199219v331.402343h-26.898438c-21.359374.011719-38.914062 16.859376-39.800781 38.199219v-329.800781c-.007812-10.558594 4.183594-20.683594 11.648438-28.148438 7.464843-7.464843 17.59375-11.65625 28.152343-11.652343zm0 0" fill="#00efd1" data-original="#00EFD1"/><g fill="#083863"><path d="m303 63c-.015625-5.515625-4.484375-9.984375-10-10h-172c-5.515625.015625-9.984375 4.484375-10 10v90c.015625 5.515625 4.484375 9.984375 10 10h172c5.515625-.015625 9.984375-4.484375 10-10zm-172 10h152v70h-152zm0 0" data-original="#083863" class="active-path"/><path d="m358.101562 220.699219c-3.601562 0-7.101562.101562-11.101562.402343v-210.902343c.0625-2.652344-.9375-5.222657-2.777344-7.136719-1.839844-1.917969-4.367187-3.0195312-7.023437-3.0625h-287.097657c-27.585937.109375-49.9375 22.414062-50.101562 50v329.800781c0 .097657.199219.300781.199219.398438v1.199219c.019531 13.203124 5.292969 25.851562 14.65625 35.15625 9.363281 9.308593 22.042969 14.503906 35.246093 14.445312h191.5c25.175782 40.15625 69.199219 64.585938 116.597657 64.699219 75.800781 0 137.5-61.597657 137.5-137.5 0-75.898438-61.800781-137.5-137.597657-137.5zm-31.101562 3.5c-26 5.902343-49.101562 19.300781-67.800781 38.601562-18.46875 19.078125-30.976563 43.125-36 69.199219h-136.199219v-312h240zm-276.898438-204.199219h16.898438v312h-16.898438c-10.78125-.046875-21.300781 3.277344-30.101562 9.5v-291.5c.128906-16.554688 13.546875-29.925781 30.101562-30zm-21.101562 382.398438c-5.597656-5.550782-8.730469-13.117188-8.699219-21v-1c.613281-15.96875 13.816407-28.554688 29.800781-28.398438h170.796876c-.097657 2-.199219 4.101562-.199219 6.300781-.078125 18.101563 3.527343 36.035157 10.601562 52.699219h-181.199219c-7.902343.070312-15.5-3.027344-21.101562-8.601562zm329.199219 73.402343c-41.773438-.078125-80.382813-22.257812-101.5-58.300781-.332031-.820312-.769531-1.589844-1.300781-2.300781-9.632813-17.417969-14.691407-36.996094-14.699219-56.898438-.019531-5.117187.3125-10.230469 1-15.300781 6.777343-51.210938 46.160156-92.015625 97.101562-100.601562.171875.027343.347657-.007813.5-.097657 6.25-1 12.570313-1.503906 18.898438-1.5 64.894531 0 117.5 52.605469 117.5 117.5s-52.605469 117.5-117.5 117.5zm0 0" data-original="#083863" class="active-path"/><path d="m399.699219 285.800781c-1.890625-1.855469-4.453125-2.863281-7.097657-2.800781-2.648437-.0625-5.210937.945312-7.101562 2.800781l-17.398438 17.398438c-.101562.101562-.203124.101562-.203124.199219-.054688 0-.097657.046874-.097657.101562l-60.800781 60.898438c-1.351562 1.339843-2.289062 3.042968-2.699219 4.902343l-8.402343 37.800781c-.703126 3.324219.308593 6.78125 2.703124 9.199219 1.878907 1.878907 4.4375 2.925781 7.097657 2.898438.738281-.019531 1.472656-.085938 2.199219-.199219l37.800781-8.300781c1.875-.367188 3.589843-1.3125 4.902343-2.699219l61-60.898438.097657-.101562 17.601562-17.601562c1.878907-1.878907 2.925781-4.4375 2.898438-7.097657-.019531-2.621093-1.058594-5.132812-2.898438-7zm-7 21.097657 15.5 15.5-3.398438 3.402343-15.5-15.5zm-54.199219 84.902343-19.699219 4.300781 4.300781-19.703124 51.898438-52.097657 15.398438 15.398438zm0 0" data-original="#083863" class="active-path"/></g></g> </svg>
