<?xml version="1.0"?>
<svg xmlns="http://www.w3.org/2000/svg" height="512px" viewBox="0 0 495 495.7" width="512px" class=""><g><path d="m337.550781 232.398438c6.941407-1.125 13.964844-1.695313 21-1.699219 70.476563-.039063 127.632813 57.074219 127.644531 127.550781.015626 70.472656-57.121093 127.609375-127.597656 127.597656-70.476562-.015625-127.589844-57.171875-127.546875-127.648437.011719-5.550781.378907-11.09375 1.097657-16.597657 7.261718-55.636718 50.058593-99.976562 105.402343-109.203124zm110.699219 174v-31.097657c.015625-7.617187-3-14.925781-8.386719-20.3125s-12.695312-8.40625-20.3125-8.386719h-9.902343c-12.957032.042969-24.328126 8.640626-27.898438 21.097657l-.101562.101562c-5.058594-3.9375-11.285157-6.085937-17.699219-6.101562h-9.800781c-6.375-.050781-12.582032 2.066406-17.597657 6l-.199219-.300781c-3.554687-12.351563-14.847656-20.871094-27.703124-20.898438h-9.898438c-7.617188-.015625-14.925781 3-20.3125 8.386719s-8.402344 12.695312-8.386719 20.3125v31.101562h55.300781v15.199219h67.296876v-15.199219h55.601562zm-20-77.199219c3.65625-3.660157 5.707031-8.625 5.699219-13.800781.015625-5.195313-2.074219-10.175782-5.800781-13.796876-3.660157-3.65625-8.625-5.707031-13.796876-5.703124-5.199218-.015626-10.175781 2.078124-13.800781 5.800781-7.59375 7.648437-7.550781 20.007812.097657 27.601562 7.652343 7.59375 20.007812 7.546875 27.601562-.101562zm-49.800781 1.199219c.011719-5.171876-2.039063-10.140626-5.699219-13.796876-3.660156-3.660156-8.625-5.710937-13.800781-5.703124-5.195313-.015626-10.175781 2.078124-13.800781 5.800781-7.621094 7.621093-7.621094 19.980469 0 27.601562 7.625 7.621094 19.980468 7.621094 27.601562 0 3.65625-3.703125 5.707031-8.695312 5.699219-13.902343zm-55.398438-15c.007813-5.171876-2.042969-10.140626-5.699219-13.796876-3.660156-3.660156-8.625-5.710937-13.800781-5.703124-5.195312-.015626-10.175781 2.078124-13.800781 5.800781-4.964844 4.90625-6.925781 12.09375-5.140625 18.839843 1.785156 6.75 7.042969 12.027344 13.78125 13.835938 6.742187 1.808594 13.9375-.128906 18.859375-5.074219 3.648438-3.714843 5.726562-8.695312 5.800781-13.902343zm0 0" fill="#00efd1" data-original="#00EFD1"/><path d="m448.25 375.398438v31.101562h-55.601562v-15.898438c.027343-8.832031-4.03125-17.175781-11-22.601562l.101562-.101562c3.570312-12.457032 14.941406-21.054688 27.898438-21.097657h9.902343c7.617188-.074219 14.945313 2.910157 20.339844 8.289063 5.394531 5.375 8.40625 12.691406 8.359375 20.308594zm0 0" fill="#d4e1f4" data-original="#D4E1F4" class=""/><path d="m433.851562 315.398438c0 10.769531-8.730468 19.5-19.5 19.5-10.769531 0-19.5-8.730469-19.5-19.5.03125-5.164063 2.074219-10.113282 5.699219-13.796876 3.636719-3.695312 8.597657-5.78125 13.777344-5.800781 5.183594-.019531 10.160156 2.03125 13.820313 5.699219 3.644531 3.710938 5.6875 8.699219 5.703124 13.898438zm0 0" fill="#d4e1f4" data-original="#D4E1F4" class=""/><path d="m392.648438 406.398438v15.203124h-67.296876v-31.101562c-.015624-7.617188 3-14.925781 8.386719-20.3125 5.386719-5.382812 12.695313-8.402344 20.3125-8.386719h9.800781c7.613282-.003906 14.914063 3.015625 20.296876 8.402344 5.382812 5.382813 8.40625 12.683594 8.402343 20.296875v15.898438zm0 0" fill="#fedb41" data-original="#FEDB41" class=""/><path d="m372.75 316.601562c6.433594 6.570313 7.347656 16.765626 2.179688 24.371094-5.171876 7.609375-14.984376 10.515625-23.464844 6.953125-8.476563-3.5625-13.269532-12.609375-11.449219-21.625 1.816406-9.015625 9.738281-15.5 18.933594-15.5 5.171875.09375 10.113281 2.171875 13.800781 5.800781zm0 0" fill="#fedb41" data-original="#FEDB41" class=""/><path d="m337.550781 10.199219v222.199219c-55.367187 9.21875-98.195312 53.550781-105.5 109.203124h-154.699219v-331.402343zm-44 142.601562v-90.101562h-172.199219v90.199219h172.199219zm0 0" fill="#00acea" data-original="#00ACEA"/><path d="m336.25 367.601562.199219.296876c-7.015625 5.441406-11.113281 13.824218-11.097657 22.703124v15.898438h-55.402343v-31.101562c-.015625-7.617188 3.003906-14.925782 8.386719-20.3125 5.386718-5.382813 12.695312-8.402344 20.3125-8.386719h9.902343c12.867188-.011719 24.179688 8.523437 27.699219 20.902343zm0 0" fill="#d4e1f4" data-original="#D4E1F4" class=""/><path d="m317.351562 301.601562c3.652344 3.660157 5.703126 8.625 5.699219 13.796876-.078125 5.179687-2.15625 10.125-5.800781 13.800781-3.621094 3.652343-8.554688 5.707031-13.699219 5.699219-5.175781.011718-10.140625-2.039063-13.800781-5.699219-3.660156-3.660157-5.710938-8.625-5.699219-13.800781.03125-5.164063 2.078125-10.113282 5.699219-13.796876 3.652344-3.6875 8.613281-5.773437 13.800781-5.800781 5.171875.09375 10.113281 2.171875 13.800781 5.800781zm0 0" fill="#d4e1f4" data-original="#D4E1F4" class=""/><path d="m121.351562 62.699219h172.199219v90.199219h-172.199219zm0 0" fill="#00efd1" data-original="#00EFD1"/><path d="m247.648438 421.199219h-197.199219c-21.945313-.078125-39.71875-17.851563-39.800781-39.800781v-1.597657c.890624-21.339843 18.441406-38.1875 39.800781-38.199219h181.601562c-.722656 5.503907-1.089843 11.046876-1.101562 16.597657-.011719 22.097656 5.742187 43.8125 16.699219 63zm0 0" fill="#d4e1f4" data-original="#D4E1F4" class=""/><path d="m77.351562 10.199219v331.402343h-26.902343c-21.359375.011719-38.910157 16.859376-39.800781 38.199219v-329.800781c-.003907-10.558594 4.1875-20.683594 11.652343-28.148438 7.464844-7.464843 17.589844-11.65625 28.148438-11.652343zm0 0" fill="#00efd1" data-original="#00EFD1"/><g fill="#083863"><path d="m303.351562 63c-.015624-5.515625-4.484374-9.984375-10-10h-172c-5.519531.015625-9.984374 4.484375-10 10v90c.015626 5.515625 4.480469 9.984375 10 10h172c5.515626-.015625 9.984376-4.484375 10-10zm-172 10h152v70h-152zm0 0" data-original="#083863" class="active-path"/><path d="m358.449219 220.699219c-3.597657 0-7.097657.101562-11.097657.402343v-210.902343c.058594-2.652344-.9375-5.222657-2.777343-7.136719-1.839844-1.917969-4.371094-3.0195312-7.023438-3.0625h-287.101562c-27.585938.109375-49.933594 22.414062-50.097657 50v329.800781c0 .097657.199219.300781.199219.398438v1.199219c.042969 27.457031 22.34375 49.667968 49.800781 49.601562h191.5c25.175782 40.15625 69.199219 64.585938 116.597657 64.699219 75.800781 0 137.5-61.597657 137.5-137.5 0-75.898438-61.699219-137.5-137.5-137.5zm-31.097657 3.5c-26 5.902343-49.101562 19.300781-67.800781 38.601562-18.46875 19.078125-30.980469 43.125-36 69.199219h-136.199219v-312h240zm-276.902343-204.199219h16.902343v312h-16.902343c-10.777344-.046875-21.300781 3.277344-30.097657 9.5v-291.5c.128907-16.554688 13.546876-29.925781 30.097657-30zm-21.097657 382.398438c-5.597656-5.550782-8.734374-13.117188-8.703124-21v-1c.613281-15.96875 13.820312-28.554688 29.800781-28.398438h170.800781c-.101562 2-.199219 4.101562-.199219 6.300781-.082031 18.101563 3.527344 36.035157 10.597657 52.699219h-181.199219c-7.898438.070312-15.5-3.027344-21.097657-8.601562zm329.199219 73.402343c-41.773437-.078125-80.386719-22.257812-101.5-58.300781-.335937-.820312-.773437-1.589844-1.300781-2.300781-9.636719-17.417969-14.695312-36.996094-14.699219-56.898438-.023437-5.117187.3125-10.230469 1-15.300781 6.777344-51.210938 46.160157-92.015625 97.097657-100.601562.175781.027343.351562-.007813.5-.097657 6.25-1 12.570312-1.503906 18.902343-1.5 64.894531 0 117.5 52.605469 117.5 117.5s-52.605469 117.5-117.5 117.5zm0 0" data-original="#083863" class="active-path"/><path d="m443.851562 315.398438c0-16.289063-13.210937-29.5-29.5-29.5-16.292968 0-29.5 13.210937-29.5 29.5v.902343c-1.382812-2.492187-3.097656-4.777343-5.101562-6.800781-5.539062-5.523438-13.046875-8.617188-20.871094-8.601562-7.824218.019531-15.316406 3.152343-20.828125 8.703124-2.003906 1.996094-3.691406 4.289063-5 6.796876v-.898438c0-16.292969-13.207031-29.5-29.5-29.5s-29.5 13.207031-29.5 29.5c.105469 9.203125 4.460938 17.84375 11.800781 23.398438-15.40625 5.515624-25.660156 20.140624-25.601562 36.5v31.101562c-.085938 2.570312.898438 5.0625 2.71875 6.882812 1.820312 1.816407 4.308594 2.800782 6.882812 2.71875h45.5v5.597657c0 5.5 4.398438 10.402343 10 10.402343h67.296876c5.5 0 9.703124-4.902343 9.703124-10.402343v-5.699219h45.898438c5.5 0 10.101562-4.101562 10.101562-9.601562v-31.097657c-.066406-16.414062-10.429687-31.019531-25.902343-36.5 1-.800781 1.902343-1.601562 2.902343-2.5 5.515626-5.550781 8.574219-13.078125 8.5-20.902343zm-36.203124-6.699219c3.195312-3.148438 8.171874-3.601563 11.882812-1.082031 3.710938 2.523437 5.125 7.316406 3.371094 11.449218-1.75 4.128906-6.179688 6.445313-10.570313 5.53125-4.394531-.917968-7.527343-4.8125-7.480469-9.296875.03125-2.484375 1.035157-4.851562 2.796876-6.601562zm-11.097657 30.199219c-4.855469 1.726562-9.308593 4.414062-13.101562 7.902343 3.25-4.855469 4.988281-10.5625 5-16.402343v-1c1.972656 3.722656 4.734375 6.96875 8.101562 9.5zm-55.699219 15.203124c-.203124-.300781-.402343-.601562-.703124-1 .308593.296876.644531.5625 1 .796876 0 .101562-.199219.203124-.296876.203124zm36.296876 0c-.199219-.101562-.296876-.101562-.5-.203124.460937-.335938.894531-.703126 1.300781-1.097657-.207031.464844-.476563.902344-.800781 1.300781zm-24.898438-30.402343c3.207031-3.183594 8.21875-3.660157 11.964844-1.132813 3.75 2.523438 5.195312 7.34375 3.453125 11.511719-1.742188 4.167969-6.1875 6.527344-10.617188 5.632813-4.429687-.894532-7.613281-4.792969-7.601562-9.3125.007812-2.515626 1.015625-4.925782 2.800781-6.699219zm-22.699219 5.601562v1.097657c.007813 5.71875 1.675781 11.3125 4.800781 16.101562-3.78125-3.355469-8.15625-5.964844-12.902343-7.699219 1.011719-.78125 1.980469-1.613281 2.902343-2.5 2.035157-2.089843 3.785157-4.445312 5.199219-7zm-32.699219-20.601562c1.765626-1.789063 4.179688-2.800781 6.699219-2.800781 2.515625 0 4.929688 1.011718 6.699219 2.800781 1.800781 1.761719 2.8125 4.179687 2.800781 6.699219-.070312 2.554687-1.105469 4.984374-2.902343 6.800781-1.742188 1.757812-4.125 2.730469-6.597657 2.699219-3.84375.011718-7.3125-2.300782-8.78125-5.851563s-.648437-7.640625 2.082031-10.347656zm-16.5 87.300781v-20.601562c-.070312-4.882813 1.832032-9.585938 5.273438-13.050782 3.445312-3.460937 8.140625-5.390625 13.023438-5.347656h9.902343c6.476563-.050781 12.519531 3.238281 16 8.699219-5.921875 6.902343-9.15625 15.707031-9.101562 24.800781v5.5zm102 16h-47v-21.5c-.023437-5.753906 2.640626-11.1875 7.199219-14.699219 3.28125-2.550781 7.34375-3.894531 11.5-3.800781h9.800781c4.136719-.054688 8.164063 1.320312 11.398438 3.898438 4.507812 3.535156 7.097656 8.976562 7 14.703124v21.398438zm56-36.601562v20.601562h-36v-5.5c.078126-9.03125-3.082031-17.792969-8.902343-24.699219 3.519531-5.53125 9.644531-8.859375 16.199219-8.800781h9.902343c4.941407-.082031 9.707031 1.820312 13.238281 5.277344 3.53125 3.457031 5.535157 8.179687 5.5625 13.121094zm0 0" data-original="#083863" class="active-path"/></g></g> </svg>
